<?xml version="1.0" encoding="UTF-8"?>
<svg width="271px" height="483px" viewBox="0 0 271 483" version="1.1" xmlns="http://www.w3.org/2000/svg" xmlns:xlink="http://www.w3.org/1999/xlink">
    <!-- Generator: Sketch 62 (91390) - https://sketch.com -->
    <title>next-1</title>
    <desc>Created with Sketch.</desc>
    <g id="Page-1" stroke="none" stroke-width="1" fill="none" fill-rule="evenodd">
        <g id="next-1" fill="#BFEEEB" fill-rule="nonzero">
            <path d="M16.394,479.146 C45.694,464.446 75.494,440.946 103.494,414.746 C157.794,363.746 212.694,313.546 265.194,260.246 L265.394,260.046 C272.694,252.646 272.594,240.746 265.194,233.446 C252.394,220.846 239.394,208.246 226.194,195.946 C218.294,187.546 210.494,179.146 202.594,170.846 C152.194,118.146 100.994,66.246 46.794,17.846 C31.394,4.046 15.994,-4.754 10.694,2.746 C5.794,9.546 11.894,24.246 26.194,39.946 C51.894,68.046 77.594,96.546 104.794,123.346 C146.694,164.746 189.694,205.046 232.194,245.746 C152.794,312.746 82.194,391.246 6.794,463.546 C3.194,466.946 0.194,474.946 0.194,478.446 C0.194,485.146 7.594,483.646 16.394,479.146 Z" id="Path"></path>
        </g>
    </g>
</svg>